<?xml version="1.0" standalone="no"?>
<!DOCTYPE svg PUBLIC "-//W3C//DTD SVG 20010904//EN"
 "http://www.w3.org/TR/2001/REC-SVG-20010904/DTD/svg10.dtd">
<svg version="1.0" xmlns="http://www.w3.org/2000/svg"
 width="410.000000pt" height="410.000000pt" viewBox="0 0 410.000000 410.000000"
 preserveAspectRatio="xMidYMid meet">
<metadata>
Created by potrace 1.14, written by Peter Selinger 2001-2017
</metadata>
<g transform="translate(0.000000,410.000000) scale(0.100000,-0.100000)"
fill="#000000" stroke="none">
<path d="M1130 3183 c-36 -8 -71 -15 -77 -15 -7 -1 -13 -6 -13 -11 0 -6 -3 -8
-6 -4 -9 8 -87 -36 -152 -86 -151 -116 -299 -355 -393 -636 -22 -68 -43 -135
-45 -150 -3 -14 -9 -42 -14 -61 -13 -45 -13 -63 0 -55 13 8 43 14 100 21 48 6
146 -23 174 -52 8 -8 19 -14 25 -14 16 0 81 41 81 51 0 5 6 9 13 9 8 0 39 18
71 40 31 22 59 40 62 40 3 0 20 11 38 25 18 14 38 25 44 25 6 0 12 4 14 8 2 4
32 27 67 50 35 23 59 42 53 42 -6 0 -11 8 -11 18 -2 118 1 139 26 187 50 96
148 152 258 146 54 -3 142 -44 178 -84 55 -60 83 -160 67 -233 -8 -35 4 -64
25 -64 8 0 15 -4 15 -10 0 -5 6 -10 14 -10 7 0 20 -7 27 -17 8 -9 29 -22 47
-30 17 -7 32 -18 32 -23 0 -6 5 -10 10 -10 6 0 33 -16 60 -35 27 -19 54 -35
60 -35 5 0 10 -4 10 -9 0 -5 8 -11 18 -15 21 -7 49 -26 74 -48 24 -24 43 -23
81 6 61 45 162 55 244 24 29 -10 53 -23 53 -27 0 -4 11 -13 24 -19 19 -9 25
-8 30 4 3 8 12 14 21 14 8 0 15 5 15 10 0 6 5 10 10 10 6 0 16 4 23 10 16 13
179 120 183 120 2 0 39 25 84 55 44 30 80 52 80 50 0 -3 8 2 18 11 9 8 46 34
82 57 83 53 88 58 83 82 -37 169 91 326 265 327 35 0 38 4 17 31 -152 202
-332 298 -540 290 -44 -1 -87 -4 -95 -6 -104 -24 -130 -31 -130 -39 0 -4 -7
-8 -15 -8 -8 0 -67 -27 -131 -61 -113 -58 -221 -100 -294 -114 -55 -10 -200
-13 -239 -4 -20 4 -47 10 -61 12 -34 7 -142 47 -157 60 -7 5 -13 6 -13 2 0 -5
-8 -1 -17 8 -16 14 -203 107 -228 114 -5 1 -35 9 -67 18 -78 21 -200 25 -278
8z"/>
<path d="M3583 2433 c-34 -43 -126 -98 -148 -89 -8 3 -15 1 -15 -3 0 -14 -102
-6 -143 12 -21 9 -51 26 -67 37 l-29 20 -38 -21 c-21 -12 -40 -24 -43 -28 -3
-4 -30 -22 -60 -41 -86 -54 -324 -209 -336 -218 -5 -5 -21 -15 -35 -22 -13 -7
-26 -16 -29 -20 -3 -3 -21 -16 -41 -28 -35 -21 -36 -24 -29 -57 20 -90 -16
-204 -83 -260 -111 -92 -261 -87 -365 14 -63 61 -86 127 -77 223 l5 64 -50 29
c-27 16 -50 33 -50 37 0 4 -5 8 -10 8 -6 0 -72 41 -148 91 -155 103 -192 124
-192 109 0 -18 -103 -62 -153 -65 -67 -3 -110 8 -168 44 -27 16 -49 25 -49 19
0 -6 -3 -9 -6 -5 -3 3 -15 -3 -26 -13 -11 -10 -32 -25 -47 -32 -14 -7 -52 -31
-85 -53 -32 -22 -68 -46 -80 -52 -11 -7 -57 -36 -101 -65 -82 -55 -88 -64 -75
-118 8 -31 -7 -115 -27 -155 -16 -30 -103 -124 -103 -110 0 4 -6 3 -13 -4 -7
-6 -38 -17 -67 -24 -63 -16 -133 -5 -194 31 -24 14 -36 17 -37 9 -3 -28 1
-205 6 -237 2 -19 7 -57 10 -85 3 -27 8 -61 10 -75 3 -14 8 -41 11 -60 3 -19
12 -57 20 -85 8 -27 15 -54 16 -60 4 -21 112 -135 128 -135 5 0 21 -5 37 -12
62 -25 130 -14 201 33 24 16 45 29 47 29 4 0 41 29 69 55 21 20 171 123 206
141 19 11 49 28 65 40 42 29 230 119 290 138 28 9 57 19 65 23 8 3 20 7 25 8
6 2 35 10 66 19 59 17 67 19 162 37 92 16 124 19 252 19 136 -1 209 -7 300
-27 11 -2 31 -6 45 -9 60 -11 261 -79 328 -110 40 -19 77 -34 82 -34 6 0 10
-4 10 -10 0 -5 7 -10 15 -10 13 0 120 -60 210 -119 22 -14 94 -65 159 -114
139 -103 173 -119 243 -120 81 -1 141 36 224 141 5 6 7 12 4 12 -3 0 -1 8 4
18 11 22 48 193 56 267 3 28 8 64 11 80 6 41 6 395 0 422 -2 12 -7 49 -11 82
-3 33 -8 70 -10 83 -5 21 -9 45 -19 108 -4 21 -14 66 -32 143 -2 9 -6 25 -8
35 -2 9 -10 31 -16 47 -6 17 -13 38 -15 47 -10 48 -20 50 -52 11z"/>
</g>
</svg>
